/* XPM */
static const char * Microscope_16_xpm[] = {
"16 16 51 1",
" 	c None",
".	c #2D333C",
"+	c #3B4148",
"@	c #3D434A",
"#	c #3F454C",
"$	c #252C35",
"%	c #474C54",
"&	c #272E36",
"*	c #20272F",
"=	c #363C44",
"-	c #5B5F66",
";	c #1B222B",
">	c #262D36",
",	c #5D6268",
"'	c #202730",
")	c #232A33",
"!	c #3A4048",
"~	c #4D5259",
"{	c #454B52",
"]	c #444A51",
"^	c #3A3F47",
"/	c #30363E",
"(	c #2E343C",
"_	c #353B43",
":	c #343A42",
"<	c #292F38",
"[	c #313840",
"}	c #212831",
"|	c #242A33",
"1	c #1F262F",
"2	c #5C6168",
"3	c #5D6269",
"4	c #2D333B",
"5	c #1E252E",
"6	c #1C232C",
"7	c #2C333B",
"8	c #242B34",
"9	c #323941",
"0	c #434950",
"a	c #222932",
"b	c #1D242D",
"c	c #272D36",
"d	c #212830",
"e	c #1D242C",
"f	c #333941",
"g	c #4A4F56",
"h	c #62666D",
"i	c #4B5158",
"j	c #2B323A",
"k	c #4F545B",
"l	c #1A212A",
"          .+    ",
"          @#$   ",
"         %&*    ",
"        =-;>    ",
"        ,')     ",
"       !~{]     ",
"       #;^@/    ",
"     (_:<[}|    ",
"     1234 56    ",
"     7890ab6    ",
"      cd6166    ",
"     |ae66;     ",
"       $6666    ",
"    fghi<6666   ",
"   j_kl;66666   ",
"                "};
