/* XPM */
static const char * Microscope_32_xpm[] = {
"32 32 101 2",
"  	c None",
". 	c #272E36",
"+ 	c #252C34",
"@ 	c #272D36",
"# 	c #30373F",
"$ 	c #6D7177",
"% 	c #373D45",
"& 	c #60656B",
"* 	c #4E545B",
"= 	c #7B7E84",
"- 	c #1E262F",
"; 	c #383E45",
"> 	c #252C35",
", 	c #1B222B",
"' 	c #171F28",
") 	c #202730",
"! 	c #2F353D",
"~ 	c #2D333C",
"{ 	c #4E535A",
"] 	c #1A212A",
"^ 	c #1C232C",
"/ 	c #2C323B",
"( 	c #A0A3A7",
"_ 	c #1A202A",
": 	c #31373F",
"< 	c #6F7379",
"[ 	c #4D525A",
"} 	c #262C35",
"| 	c #989B9F",
"1 	c #171E27",
"2 	c #2C323A",
"3 	c #2D333B",
"4 	c #8E9296",
"5 	c #232A32",
"6 	c #3F454D",
"7 	c #3D434A",
"8 	c #7D8086",
"9 	c #192029",
"0 	c #1D242D",
"a 	c #282F37",
"b 	c #1F262F",
"c 	c #9DA0A4",
"d 	c #1D242C",
"e 	c #363C44",
"f 	c #3C424A",
"g 	c #5F646A",
"h 	c #5C6167",
"i 	c #1E252E",
"j 	c #191F28",
"k 	c #BCBDC0",
"l 	c #383E46",
"m 	c #666B71",
"n 	c #222932",
"o 	c #181F28",
"p 	c #4C5259",
"q 	c #3E444B",
"r 	c #818489",
"s 	c #333942",
"t 	c #232A33",
"u 	c #1E252D",
"v 	c #2B323A",
"w 	c #313840",
"x 	c #2C333B",
"y 	c #262D35",
"z 	c #2F353E",
"A 	c #81868A",
"B 	c #82868B",
"C 	c #565B62",
"D 	c #C0C3C5",
"E 	c #64696F",
"F 	c #2B3139",
"G 	c #212830",
"H 	c #787C82",
"I 	c #9EA1A6",
"J 	c #293038",
"K 	c #242B33",
"L 	c #1F252E",
"M 	c #222931",
"N 	c #212831",
"O 	c #2F363E",
"P 	c #20272F",
"Q 	c #222831",
"R 	c #323941",
"S 	c #282E37",
"T 	c #454A51",
"U 	c #4C5158",
"V 	c #3F444C",
"W 	c #353B44",
"X 	c #212730",
"Y 	c #3A4047",
"Z 	c #95989D",
"` 	c #B6B8BB",
" .	c #919499",
"..	c #61656B",
"+.	c #3D434B",
"@.	c #333941",
"#.	c #7E8287",
"$.	c #BFC1C4",
"%.	c #494F56",
"&.	c #181E28",
"*.	c #182029",
"                                          . +                   ",
"                                        @ # $ +                 ",
"                                        % & * = -               ",
"                                        ; > , ' )               ",
"                                    ! ~ { ] ^ ^ /               ",
"                                    ) ( _ ^ ^                   ",
"                                  : < [ , ^ ^                   ",
"                                  } | 1 ^ ^ 2                   ",
"                                3 4 ! ^ ^ 5                     ",
"                              6 7 8 9 0 @ a                     ",
"                              b c d , @ e f                     ",
"                            # g h i j k l m                     ",
"                            n | o ^ p q r s                     ",
"                            t 0 ^ ^ u q > , .                   ",
"                              v ^ ^ w   } ^ ^                   ",
"                    x 0 y z       :     a ^ ^                   ",
"                    ^ ^ A B > x           ^ ^ 0                 ",
"                    v ^ o C D E 0         ^ ^ ,                 ",
"                      F G , ^ H I J K   i ^ ^                   ",
"                          > ^ ] L y )   u ^ ^                   ",
"                              M ^ ^ n ) ^ ^ ^                   ",
"                        N N ^ ^ 0 ^ b ^ ^ ^ ^                   ",
"                    , ^ ^ ^ ^ ^ 0 ^ ^ ^ ^ ,                     ",
"                    O J .   P ^ ^ ^ ^ ^ ^ ^                     ",
"                              b ^ ^ ^ ^ ^ ^ ^                   ",
"                            a Q ^ ^ ^ ^ ^ ^ ^ ^                 ",
"                    R y o S T U V ) ^ ^ ^ ^ ^ ^                 ",
"                W X Y Z `  ...+.@ 0 ^ ^ ^ ^ ^ ^ ^               ",
"              @.9 #.$.%.&.*., ^ ^ ^ ^ ^ ^ ^ ^ ^ ^               ",
"              ^ , N o , ^ ^ ^ ^ ^ ^ ^ ^ ^ ^ ^ ^ ^               ",
"                                                                ",
"                                                                "};
