/* XPM */
static const char * Microscope_24_xpm[] = {
"24 24 81 1",
" 	c None",
".	c #2E343D",
"+	c #252C34",
"@	c #2C333B",
"#	c #40464D",
"$	c #5C6167",
"%	c #666B71",
"&	c #2A3039",
"*	c #3B4148",
"=	c #1E252E",
"-	c #252B34",
";	c #222931",
">	c #363C44",
",	c #40454D",
"'	c #373E46",
")	c #1B222B",
"!	c #1F262F",
"~	c #323840",
"{	c #777B80",
"]	c #1A212A",
"^	c #1C232C",
"/	c #252C35",
"(	c #393F47",
"_	c #64686F",
":	c #373D45",
"<	c #212730",
"[	c #2B313A",
"}	c #3C424A",
"|	c #696E74",
"1	c #2F363E",
"2	c #343A42",
"3	c #72767C",
"4	c #262C35",
"5	c #1D242D",
"6	c #353B43",
"7	c #454B52",
"8	c #585D64",
"9	c #1D232C",
"0	c #797D82",
"a	c #4F545B",
"b	c #2F353D",
"c	c #63686E",
"d	c #192029",
"e	c #2D343C",
"f	c #484E55",
"g	c #63676D",
"h	c #282E37",
"i	c #222932",
"j	c #1F262E",
"k	c #202730",
"l	c #2F353E",
"m	c #2D333B",
"n	c #242B34",
"o	c #70757A",
"p	c #6C7177",
"q	c #2E353D",
"r	c #20272F",
"s	c #2B323A",
"t	c #484D54",
"u	c #8F9397",
"v	c #494F56",
"w	c #434950",
"x	c #292F38",
"y	c #212831",
"z	c #2C323A",
"A	c #262D35",
"B	c #242A33",
"C	c #333941",
"D	c #212830",
"E	c #686D73",
"F	c #8A8E92",
"G	c #71757B",
"H	c #545960",
"I	c #323941",
"J	c #232932",
"K	c #8E9195",
"L	c #181F28",
"M	c #2E343C",
"N	c #2D333C",
"O	c #272E37",
"P	c #232A33",
"               .+@      ",
"               #$%&     ",
"               *=-;     ",
"             >,')!      ",
"             ~{]^/      ",
"            (_:^<[      ",
"            }|])1       ",
"           234561       ",
"          :7890a(       ",
"          bcdefgh       ",
"          'i)jek5l      ",
"       e/m> 1~ n)4      ",
"       /)opq   r^^      ",
"       s-9tuvh =^)      ",
"         [!^wr 5^)      ",
"          xy)=k))       ",
"       )^5^^^^^^)       ",
"       zA/B^^^)^^       ",
"           B))))))      ",
"        CAx4D^)^^)      ",
"      6&EFGHI^)^^)^     ",
"     bJKaL]))))))))     ",
"     eMMNezOPk5^^)^     ",
"                        "};
