/* XPM */
static const char * Microscope_48_xpm[] = {
"48 48 175 2",
"  	c None",
". 	c #323840",
"+ 	c #2E343C",
"@ 	c #2C333B",
"# 	c #31373F",
"$ 	c #313740",
"% 	c #1F262F",
"& 	c #1E252E",
"* 	c #1D242C",
"= 	c #30363E",
"- 	c #2D343C",
"; 	c #242B34",
"> 	c #3D444B",
", 	c #9C9FA4",
"' 	c #595F65",
") 	c #20272F",
"! 	c #242A33",
"~ 	c #8A8D92",
"{ 	c #464C53",
"] 	c #50555D",
"^ 	c #B0B2B5",
"/ 	c #70747A",
"( 	c #1B232C",
"_ 	c #2C323B",
": 	c #212830",
"< 	c #444A51",
"[ 	c #242B33",
"} 	c #181F28",
"| 	c #272E36",
"1 	c #393E46",
"2 	c #1B222B",
"3 	c #2E353D",
"4 	c #595E64",
"5 	c #202730",
"6 	c #1A212A",
"7 	c #19212A",
"8 	c #2A3039",
"9 	c #343A42",
"0 	c #232932",
"a 	c #51575E",
"b 	c #4B5058",
"c 	c #1A212B",
"d 	c #1C232C",
"e 	c #2B323A",
"f 	c #2E343D",
"g 	c #2B3139",
"h 	c #8E9196",
"i 	c #282E37",
"j 	c #1F262E",
"k 	c #6D7177",
"l 	c #92959A",
"m 	c #171D27",
"n 	c #333941",
"o 	c #3C414A",
"p 	c #A3A6AB",
"q 	c #393F47",
"r 	c #222831",
"s 	c #343B43",
"t 	c #192029",
"u 	c #898C91",
"v 	c #777B81",
"w 	c #3A4048",
"x 	c #B3B5B8",
"y 	c #2F353E",
"z 	c #3A3F47",
"A 	c #252C35",
"B 	c #AAADB0",
"C 	c #4D5259",
"D 	c #676C72",
"E 	c #989C9F",
"F 	c #171E27",
"G 	c #3E444C",
"H 	c #9FA1A5",
"I 	c #484D54",
"J 	c #30363F",
"K 	c #2F353D",
"L 	c #373D45",
"M 	c #808489",
"N 	c #7C7F85",
"O 	c #1C222B",
"P 	c #555A61",
"Q 	c #252C34",
"R 	c #272D36",
"S 	c #353C44",
"T 	c #3E454C",
"U 	c #93979B",
"V 	c #373C45",
"W 	c #5D6268",
"X 	c #3D434A",
"Y 	c #20262F",
"Z 	c #676C71",
"` 	c #1D242D",
" .	c #4C5158",
"..	c #C6C7C9",
"+.	c #40454D",
"@.	c #686D73",
"#.	c #454B53",
"$.	c #2A3038",
"%.	c #5D6369",
"&.	c #A0A3A6",
"*.	c #161D26",
"=.	c #494F56",
"-.	c #282E36",
";.	c #54585F",
">.	c #86898E",
",.	c #4E545B",
"'.	c #40464D",
").	c #5E6269",
"!.	c #6D7278",
"~.	c #777B80",
"{.	c #293038",
"].	c #1C232D",
"^.	c #292F38",
"/.	c #212831",
"(.	c #232A33",
"_.	c #282F37",
":.	c #2A3139",
"<.	c #252B34",
"[.	c #30373F",
"}.	c #888D91",
"|.	c #909498",
"1.	c #4A4F56",
"2.	c #2A313A",
"3.	c #7E8187",
"4.	c #BCBEC1",
"5.	c #8B8F94",
"6.	c #3C4249",
"7.	c #212730",
"8.	c #41474E",
"9.	c #ACAEB1",
"0.	c #CACBCD",
"a.	c #6E7278",
"b.	c #181E28",
"c.	c #51565D",
"d.	c #B4B7BA",
"e.	c #A5A8AD",
"f.	c #42484F",
"g.	c #676B71",
"h.	c #6A6F75",
"i.	c #262D35",
"j.	c #222932",
"k.	c #222931",
"l.	c #1F252E",
"m.	c #363C44",
"n.	c #2F363E",
"o.	c #2D333C",
"p.	c #262C35",
"q.	c #383E45",
"r.	c #2A2F38",
"s.	c #2D323B",
"t.	c #5F636A",
"u.	c #7D8186",
"v.	c #919499",
"w.	c #94979B",
"x.	c #888C91",
"y.	c #74787E",
"z.	c #575C62",
"A.	c #353B43",
"B.	c #373D46",
"C.	c #3D424A",
"D.	c #909397",
"E.	c #CACCCE",
"F.	c #BEC0C3",
"G.	c #8F9296",
"H.	c #60646B",
"I.	c #3F444C",
"J.	c #262D36",
"K.	c #363C43",
"L.	c #1B212A",
"M.	c #7E8287",
"N.	c #E0E1E2",
"O.	c #B0B3B5",
"P.	c #131A23",
"Q.	c #7F8388",
"R.	c #595E65",
"                                                              . + @ #                           ",
"                                                            $ % & * * =                         ",
"                                                            - ; > , ' )                         ",
"                                                            ! ~ { ] ^ / ( _                     ",
"                                                            : < [ } | 1 2 [                     ",
"                                                            3 4 5 2 6 7 % 8                     ",
"                                                      9 ; 0 a b c d d d e                       ",
"                                                      f g h i 6 2 2 5 ;                         ",
"                                                      j k l m 2 d 2 [                           ",
"                                                    n o p q 6 d d d r                           ",
"                                                  s t u v d d 2 d & |                           ",
"                                                  8 w x y 6 d 2 d +                             ",
"                                                z A B C m d d d :                               ",
"                                                8 D E F 2 d 2 2 #                               ",
"                                              G + H I t 2 & J 5 K                               ",
"                                            L 2 M N O 2 d j - P Q                               ",
"                                            R S ^ 9 t 7 T U V W X                               ",
"                                          . Y E Z F 0 `  ...+.@.#.                              ",
"                                          $.%.&.*.2 & =.K -.;.>.8                               ",
"                                          d ,.'.t 2 6 9 ).!.~.w 2 {.                            ",
"                                          _ ].2 d d d 2 0 ^.: 6 2 /.                            ",
"                                            + (.d 2 2 _.    g 2 d 2 R                           ",
"                                f :.#           _ ! R       :.% d 2 <.                          ",
"                              - & Y R ` [.        S           /.d d /.                          ",
"                              d 2 & }.|.1./.2..               j d 2 2 %                         ",
"                              (.2 6 g 3.4.5.6.7.8             ` d 2 2 d                         ",
"                              K ! d 6 ` 8.9.0.a.} A           ` d d d 2                         ",
"                                  [ % 2 6 b.c.d.e.f.<.A     % d d 2 2                           ",
"                                    - 5 2 2 F ; g.h.i.&     % 2 d 2 2                           ",
"                                      - :.d d 6 6 /.` &     j d d d d                           ",
"                                            ; & d 2 2 %   5 d 2 d 2                             ",
"                                        ^.j.k.k.d 2 2   : d d 2 d 2                             ",
"                                    & l.& d d d & d d ` d d d d d d                             ",
"                              2 2 2 d 2 2 d 2 2 ` 2 2 d 2 2 d 2 2                               ",
"                              j.2 2 d % j.d 2 2 ` 2 2 d 2 2 d 2 d                               ",
"                              m.$ n.o.o.  Q 2 2 d 2 2 d 2 2 d 2 d                               ",
"                                            p.d d d d d d d d d d d d                           ",
"                                              0 d 2 2 d 2 2 d 2 d 2 2                           ",
"                                          8 % & d d d d d d d d d d d d                         ",
"                              q.# f t 2 5 r.s.o.8 k.d d 2 2 d 2 d 2 2 d                         ",
"                            J ! t f t.u.v.w.x.y.z.A.% d 2 2 d 2 d 2 2 d 2                       ",
"                        B.! m C.D.E.F.G.H.I.K J.5 ` d d d d d d d d d d d                       ",
"                      K.L.! M.N.O.c.} P.} 6 2 2 d 2 2 d 2 2 d 2 d 2 2 d 2 2                     ",
"                    n.% 6 . Q.R.<.F 2 2 2 d 2 2 d 2 2 d 2 2 d 2 d 2 2 d 2 2                     ",
"                    _.d 2 d * t 6 2 d d d d d d d d d d d d d d d d d d d d                     ",
"                                                                                                ",
"                                                                                                ",
"                                                                                                "};
