/* XPM */
static const char * Microscope_64_xpm[] = {
"64 64 188 2",
"  	c None",
". 	c #1D242C",
"+ 	c #181F29",
"@ 	c #131A23",
"# 	c #1A212A",
"$ 	c #1C232C",
"% 	c #141B25",
"& 	c #2A3139",
"* 	c #2C333B",
"= 	c #131922",
"- 	c #151D26",
"; 	c #171E28",
"> 	c #3B4149",
", 	c #4A5057",
"' 	c #CECFD2",
") 	c #A8ACAF",
"! 	c #3A4048",
"~ 	c #50555D",
"{ 	c #D9DBDC",
"] 	c #202730",
"^ 	c #40464E",
"/ 	c #CED0D2",
"( 	c #E2E3E4",
"_ 	c #52575E",
": 	c #656A70",
"< 	c #70757A",
"[ 	c #171E27",
"} 	c #19202A",
"| 	c #575C63",
"1 	c #61656C",
"2 	c #1B222B",
"3 	c #1B232C",
"4 	c #1F262E",
"5 	c #131B24",
"6 	c #141B24",
"7 	c #919598",
"8 	c #494F56",
"9 	c #161D27",
"0 	c #0C131C",
"a 	c #484E55",
"b 	c #9B9EA2",
"c 	c #1A212B",
"d 	c #74787E",
"e 	c #363C44",
"f 	c #192029",
"g 	c #111721",
"h 	c #DDDEDF",
"i 	c #242A33",
"j 	c #161E27",
"k 	c #181F28",
"l 	c #232932",
"m 	c #D9DADC",
"n 	c #676C72",
"o 	c #121822",
"p 	c #0F1620",
"q 	c #8D9095",
"r 	c #C3C5C9",
"s 	c #161D26",
"t 	c #151C25",
"u 	c #3A3F48",
"v 	c #E6E7E8",
"w 	c #494E56",
"x 	c #131923",
"y 	c #B3B5B8",
"z 	c #A0A3A7",
"A 	c #101720",
"B 	c #595F65",
"C 	c #2D333C",
"D 	c #1C232D",
"E 	c #D2D4D5",
"F 	c #797D82",
"G 	c #101620",
"H 	c #7F8488",
"I 	c #CED0D1",
"J 	c #2E343D",
"K 	c #E1E3E4",
"L 	c #545960",
"M 	c #121922",
"N 	c #1E252E",
"O 	c #A1A3A7",
"P 	c #ADAEB2",
"Q 	c #686C73",
"R 	c #3C4249",
"S 	c #171F28",
"T 	c #C3C5C8",
"U 	c #888C91",
"V 	c #10161F",
"W 	c #19212A",
"X 	c #293039",
"Y 	c #474D55",
"Z 	c #393F47",
"` 	c #86898E",
" .	c #6C7176",
"..	c #DADBDC",
"+.	c #222932",
"@.	c #182028",
"#.	c #1D242D",
"$.	c #A5A8AB",
"%.	c #FFFFFF",
"&.	c #60646B",
"*.	c #9EA1A4",
"=.	c #293038",
"-.	c #262C35",
";.	c #DDDFDF",
">.	c #666B70",
",.	c #292F38",
"'.	c #7D8086",
").	c #CFD0D2",
"!.	c #41464E",
"~.	c #2A313A",
"{.	c #B1B3B7",
"].	c #979B9E",
"^.	c #BEC0C2",
"/.	c #555B62",
"(.	c #222931",
"_.	c #0E141E",
":.	c #A2A5A9",
"<.	c #85888E",
"[.	c #272F37",
"}.	c #C9CBCE",
"|.	c #434950",
"1.	c #3C424A",
"2.	c #7F8389",
"3.	c #6D7177",
"4.	c #6D7278",
"5.	c #B1B3B6",
"6.	c #9FA1A5",
"7.	c #2B323A",
"8.	c #2C323A",
"9.	c #51565D",
"0.	c #1B222C",
"a.	c #30363E",
"b.	c #141C25",
"c.	c #131A24",
"d.	c #9DA1A4",
"e.	c #AFB2B4",
"f.	c #4D5359",
"g.	c #F9F9FA",
"h.	c #B2B5B7",
"i.	c #40464D",
"j.	c #111821",
"k.	c #121821",
"l.	c #53585F",
"m.	c #D6D8D9",
"n.	c #FBFCFC",
"o.	c #9DA0A4",
"p.	c #2E343C",
"q.	c #7D8186",
"r.	c #EEEFEF",
"s.	c #E9EAEB",
"t.	c #6C7177",
"u.	c #F7F7F8",
"v.	c #3D444C",
"w.	c #A9ABAF",
"x.	c #D3D5D7",
"y.	c #52585F",
"z.	c #4B5158",
"A.	c #182029",
"B.	c #4B5058",
"C.	c #6F7379",
"D.	c #83878C",
"E.	c #808488",
"F.	c #313840",
"G.	c #212730",
"H.	c #575C64",
"I.	c #CECFD1",
"J.	c #DFE0E1",
"K.	c #BDBEC1",
"L.	c #7A7F84",
"M.	c #585D64",
"N.	c #3D434B",
"O.	c #2D333B",
"P.	c #343A42",
"Q.	c #8F9296",
"R.	c #FCFCFD",
"S.	c #D5D6D8",
"T.	c #95989C",
"U.	c #2A3039",
"V.	c #1B212B",
"W.	c #7A7E83",
"X.	c #F4F4F5",
"Y.	c #B5B8BA",
"Z.	c #4C5158",
"`.	c #0F151F",
" +	c #70747A",
".+	c #F5F5F6",
"++	c #B6B8BB",
"@+	c #555A61",
"                                                                                                                                ",
"                                                                                    . + @ #                                     ",
"                                                                                  $ % & * = -                                   ",
"                                                                                  ; > , ' ) ! @                                 ",
"                                                                                % ~ { ] ^ / ( _ -                               ",
"                                                                                @ : < [ % } | 1 2 3                             ",
"                                                                                # 4 $ 2 $ # 5 6 $ $                             ",
"                                                                                [ 7 8 9 $ $ $ $ $                               ",
"                                                                            2 0 a b c 2 $ $ $ $ $                               ",
"                                                                          2 2 d e ] f $ $ $ $ $                                 ",
"                                                                          g : h i j $ $ $ $                                     ",
"                                                                        k l m n o $ $ $ $ $                                     ",
"                                                                      $ p q r s # $ $ $ $ $                                     ",
"                                                                      t u v w @ $ $ $ $ $ $                                     ",
"                                                                    2 x y z A $ $ $ $ $ $                                       ",
"                                                                    o B ( C [ $ $ $ $ $ $                                       ",
"                                                                  } D E F G $ $ $ $ $ $                                         ",
"                                                                  G H I # # $ $ $ $ $                                           ",
"                                                                [ J K L M $ $ N 2 f $                                           ",
"                                                              $ A O P o 2 $ $ ] > J k                                           ",
"                                                              @ w ( e t $ $ f @ ] Q R S                                         ",
"                                                            # j T U V 2 $ W X Y k Z ` f                                         ",
"                                                            A  ...+.@.#.# 6 $.%.&.k *.=.                                        ",
"                                                          k -.;.>.g 2 ,.i o '.).!.~.{.+.                                        ",
"                                                        2 @ ].^.t 2 2 +./.(._.= = :.<.@                                         ",
"                                                        f [.}.|.6 $ $ ; 1.2.3.4.5.6.#.#                                         ",
"                                                        2 ] 7.[ $ $ $ $ s 8.&.d 9.j f $ $                                       ",
"                                                          0.+ $ $ $ $ $ $ 2 6 M t 2 $ $ $                                       ",
"                                                            $ $ $ $ $ $ $         $ $ $ $ $                                     ",
"                                                                $ $ $ $           $ $ $ $ $                                     ",
"                                            $ 2 f                   $             $ $ $ $ $                                     ",
"                                          $ 2 i a.b.c.                              $ $ $ $ $                                   ",
"                                        $ $ # +.d.e.f.@ %                           $ $ $ $ $                                   ",
"                                        $ $ $ k ] b g.h.i.j.j                       $ $ $ $ $                                   ",
"                                          $ $ $ f k.l.m.n.o.p.G #                   $ $ $ $ $                                   ",
"                                            $ $ $ 0.M N q.r.s.t.9 b.                $ $ $ $ $                                   ",
"                                              $ $ $ $ f G a.o.u.r 1.@ $             $ $ $ $ $                                   ",
"                                                  $ $ $ $ s j.v.w.x.y.s $         $ $ $ $ $                                     ",
"                                                    $ $ $ $ $ t k.Z z.$ $         $ $ $ $ $                                     ",
"                                                        $ $ $ $ 2 [ 9 $ $       $ $ $ $ $ $                                     ",
"                                                            $ $ $ $ $ $ $       $ $ $ $ $ $                                     ",
"                                                                $ $ $ $       $ $ $ $ $ $                                       ",
"                                                      $ $ $ $ $ $ $ $ $     $ $ $ $ $ $ $                                       ",
"                                              $ $ $ $ $ $ $ $ $ $ $ $ $ $ $ $ $ $ $ $ $                                         ",
"                                          $ $ $ $ $ $ $ $ $ $ $   $ $ $ $ $ $ $ $ $ $                                           ",
"                                          $ $ $ $ $ $ $ $ $ $ $   $ $ $ $ $ $ $ $ $                                             ",
"                                          $ $ $ $ $     $ $ $ $ $ $ $ $ $ $ $ $ $ $ $                                           ",
"                                          $               $ $ $ $ $ $ $ $ $ $ $ $ $ $ $                                         ",
"                                                            $ $ $ $ $ $ $ $ $ $ $ $ $ $ $                                       ",
"                                                              $ $ $ $ $ $ $ $ $ $ $ $ $ $ $                                     ",
"                                                                $ $ $ $ $ $ $ $ $ $ $ $ $ $                                     ",
"                                                        $ $ $ $ $ $ $ $ $ $ $ $ $ $ $ $ $ $ $                                   ",
"                                              $ $ # A.t o G G G g t W $ $ $ $ $ $ $ $ $ $ $ $ $                                 ",
"                                          $ f x g 2 ,.B.C.D.U U E.| F.$ $ $ $ $ $ $ $ $ $ $ $ $                                 ",
"                                      $ s g G.H.z I.v J.K.o.L.M.N.O.+.$ $ $ $ $ $ $ $ $ $ $ $ $ $                               ",
"                                  $ # g P.Q.( R.S.T.| U.# A g b.k # 2 $ $ $ $ $ $ $ $ $ $ $ $ $ $                               ",
"                                $ # V.W.X.%.Y.Z.2 `.@ A.# $ $ $ $ $ $ $ $ $ $ $ $ $ $ $ $ $ $ $ $ $                             ",
"                              $ $ =  +.+++@+5 x # $ $ $ $ $ $ $ $ $ $ $ $ $ $ $ $ $ $ $ $ $ $ $ $ $                             ",
"                            $ $ $ 2 & 7.[ x 2 $ $ $ $ $ $ $ $ $ $ $ $ $ $ $ $ $ $ $ $ $ $ $ $ $ $ $                             ",
"                            $ $ $ $ # k 2 $ $ $ $ $ $ $ $ $ $ $ $ $ $ $ $ $ $ $ $ $ $ $ $ $ $ $ $ $                             ",
"                                                                                                                                ",
"                                                                                                                                ",
"                                                                                                                                ",
"                                                                                                                                "};
