/* XPM */
static const char *stock_hchain_24_broken[] = {
/* columns rows colors chars-per-pixel */
"24 9 15 1 ",
"  c #2E3436",
". c #555753",
"X c #888A85",
"o c #8D8D8E",
"O c #8E8E90",
"+ c #8F8F91",
"@ c #959597",
"# c #989899",
"$ c #9D9D9E",
"% c #B9B9BA",
"& c #E8E8E9",
"* c #EEEEEC",
"= c #555753",
"- c #555753",
"; c None",
/* pixels */
";;;;;;;;;;;;;;;;;;;;;;;;",
"=.......=;;;;;;-.......=",
".O&&&&&+.;;;;;;.@&&&&&%.",
".&.....XXX;;;;XXX.....&.",
".&.;;;X***;;;;*** ;;;.&.",
".&.....   ;;;;   .....&.",
".o&&&&&O.;;;;;;.#&&&&&$.",
"=.......-;;;;;;-.......=",
";;;;;;;;;;;;;;;;;;;;;;;;"
};
